<svg width="16" height="16" viewBox="0 0 16 16" fill="none"
  xmlns="http://www.w3.org/2000/svg">
  <path d="M13.3335 8.12154V5.21245C13.3335 4.08362 13.3335 3.51921 13.1549 3.06842C12.8677 2.34372 12.2603 1.77209 11.4903 1.50179C11.0114 1.33366 10.4117 1.33366 9.21228 1.33366C7.11337 1.33366 6.06392 1.33366 5.22574 1.62789C3.87825 2.10092 2.81537 3.10127 2.31279 4.36949C2.00016 5.15837 2.00016 6.14609 2.00016 8.12154V9.81851C2.00016 11.8648 2.00016 12.8879 2.5653 13.5984C2.72722 13.802 2.91924 13.9827 3.13554 14.1351C3.83214 14.6259 4.81153 14.6638 6.66683 14.6667" stroke="currentColor" stroke-width="1.2" stroke-linecap="round" stroke-linejoin="round"/>
  <path d="M2.00033 8C2.00033 6.7727 2.99525 5.77778 4.22255 5.77778C4.6664 5.77778 5.18968 5.85555 5.62124 5.73992C6.00467 5.63718 6.30417 5.33768 6.40691 4.95424C6.52254 4.52269 6.44477 3.99941 6.44477 3.55556C6.44477 2.32826 7.43969 1.33333 8.66699 1.33333" stroke="currentColor" stroke-width="1.2" stroke-linecap="round" stroke-linejoin="round"/>
  <path d="M8 11.3333L8.68184 11.7296C9.0249 10.4851 10.3409 9.74662 11.6212 10.0801C12.2766 10.2508 12.7956 10.6692 13.1001 11.204M14 13.3333L13.3183 12.9371C12.9752 14.1815 11.6592 14.92 10.3789 14.5866C9.73874 14.4199 9.22871 14.0167 8.9216 13.4997" stroke="currentColor" stroke-width="1.2" stroke-linecap="round" stroke-linejoin="round"/>
</svg>
