<svg width="16" height="16" fill="none">
  <defs>
    <clipPath id="a" class="a">
      <path fill="#fff" d="M0 0h16v16H0z"/>
    </clipPath>
  </defs>
  <g clip-path="url(#a)" class="ic-Reject" stroke="currentColor" stroke-width="1.2">
    <path d="M8.667 14.667H4.394c-1.03 0-1.85-.502-2.585-1.203-1.507-1.435.966-2.581 1.91-3.143A7.11 7.11 0 0 1 9 9.531" stroke-linecap="round" stroke-linejoin="round" class="Vector"/>
    <path d="M11 4.333a3 3 0 1 1-6 0 3 3 0 0 1 6 0Z" class="Ellipse 1381"/>
    <path d="m10.666 14.667 2-2m0 0 2-2m-2 2-2-2m2 2 2 2" stroke-linecap="round" class="Vector"/>
  </g>
</svg>
