<svg width="16" height="16" viewBox="0 0 16 16" fill="none" xmlns="http://www.w3.org/2000/svg">
<path d="M6 14.6663C6.23989 14.6663 7.12719 14.2614 8.0329 13.4515M8.0329 13.4515C8.8052 12.7609 9.59089 11.7759 10 10.4964C10.8889 7.71652 5.55556 10.4964 7.33333 12.8131C7.55207 13.0981 7.78763 13.3064 8.0329 13.4515ZM8.0329 13.4515C9.10138 14.0836 10.3541 13.5157 11.2028 12.8626C11.4621 12.663 11.5918 12.5632 11.6692 12.5943C11.7466 12.6254 11.7919 12.804 11.8824 13.1612C12.1721 14.3043 13.0277 15.227 14 13.74" stroke="#667085" stroke-width="1.2" stroke-linecap="round" stroke-linejoin="round"/>
<path d="M13.333 8.66602L13.333 5.25983C13.333 4.11693 13.333 3.54548 13.1544 3.08907C12.8672 2.35534 12.2598 1.77658 11.4898 1.50291C11.0109 1.33268 10.4112 1.33268 9.2118 1.33268C7.11288 1.33268 6.06343 1.33268 5.22525 1.63059C3.87777 2.1095 2.81488 3.12233 2.3123 4.40636C1.99967 5.20507 1.99967 6.20511 1.99967 8.20519L1.99967 9.92331C1.99967 11.9951 1.99967 13.0309 2.56481 13.7503C2.72673 13.9564 2.91875 14.1394 3.13505 14.2937C3.37978 14.4683 3.65942 14.5863 3.99967 14.666" stroke="#667085" stroke-width="1.2" stroke-linecap="round" stroke-linejoin="round"/>
<path d="M2.00033 8C2.00033 6.7727 2.99525 5.77778 4.22255 5.77778C4.6664 5.77778 5.18968 5.85555 5.62124 5.73992C6.00467 5.63718 6.30417 5.33768 6.40691 4.95424C6.52254 4.52269 6.44477 3.99941 6.44477 3.55556C6.44477 2.32826 7.43969 1.33333 8.66699 1.33333" stroke="#667085" stroke-width="1.2" stroke-linecap="round" stroke-linejoin="round"/>
</svg>
