<svg width="24" height="24" viewBox="0 0 24 24" fill="none" xmlns="http://www.w3.org/2000/svg">
<g opacity="0.4">
<path d="M4.551 14.6496C7.73419 12.7838 11.7662 12.7838 14.9494 14.6496C15.0502 14.7087 15.1757 14.7784 15.3186 14.8576C15.9512 15.2088 16.9231 15.7484 17.5885 16.3895C18.004 16.7898 18.4135 17.3306 18.4883 18.0039C18.5684 18.7255 18.2461 19.3913 17.6298 19.9693C16.5797 20.9541 15.3118 21.7502 13.6694 21.7502H5.83096C4.18862 21.7502 2.9207 20.9541 1.87062 19.9693C1.2543 19.3913 0.93195 18.7255 1.01207 18.0039C1.08684 17.3306 1.4964 16.7898 1.91189 16.3895C2.57728 15.7484 3.54919 15.2088 4.18183 14.8576C4.32465 14.7784 4.4502 14.7087 4.551 14.6496Z" fill="#98A2B3"/>
<path d="M5.00019 7.00024C5.00019 4.37689 7.12684 2.25024 9.75019 2.25024C12.3735 2.25024 14.5002 4.37689 14.5002 7.00024C14.5002 9.6236 12.3735 11.7502 9.75019 11.7502C7.12684 11.7502 5.00019 9.6236 5.00019 7.00024Z" fill="#98A2B3"/>
</g>
<path d="M22.6445 2.55301C22.8915 3.04698 22.6913 3.64766 22.1973 3.89465C21.4242 4.28122 20.6663 5.11294 20.0638 5.95646C19.774 6.36215 19.5412 6.74045 19.3811 7.01688C19.3014 7.15462 19.2404 7.26585 19.2002 7.34101C19.1802 7.37856 19.1653 7.40702 19.1559 7.42517L19.146 7.44451L19.1445 7.44743C18.9844 7.76748 18.6652 7.97786 18.3079 7.99855C17.9505 8.01924 17.6093 7.84729 17.4133 7.54769C17.2608 7.3146 16.9989 7.07788 16.7268 6.88119C16.5984 6.78838 16.4825 6.71506 16.4003 6.66583C16.3595 6.64139 16.3278 6.62337 16.308 6.61233L16.2877 6.60121C15.7984 6.34568 15.6081 5.74166 15.8634 5.25215C16.1188 4.76244 16.7227 4.57246 17.2125 4.82781L17.214 4.82863L17.2159 4.82964L17.2209 4.83227L17.2352 4.83989C17.2466 4.84601 17.2617 4.85423 17.2801 4.86447C17.3169 4.88494 17.3672 4.91363 17.428 4.95002C17.5489 5.02244 17.7143 5.12725 17.8984 5.26033C17.9452 5.29415 17.9944 5.33064 18.0453 5.36972C18.1624 5.18845 18.2932 4.99442 18.4364 4.79398C19.0838 3.88749 20.076 2.71921 21.3029 2.10579C21.7969 1.8588 22.3975 2.05903 22.6445 2.55301Z" fill="#98A2B3"/>
</svg>
